PathFileType	4	(X/Y/Z)	E:\3-PhD\Data\MocapData\ElaboratedData\009\pre\dynamicElaborations\RunL1\RunL1.trc
DataRate	CameraRate	NumFrames	NumMarkers	Units	OrigDataRate	DataStartFrame
200	200	4	54	mm	200	438
Frame#	Time	FHD			LBHD			RBHD			C7			T10			CLAV			LSHO			LUUPA			LMUPA			LDUPA			LLEP			LMEP			LRAD			LUL			LRFIN			RSHO			RUPA1			RMUPA			RDUPA			RLEP			RMEP			RRAD			RUL			RUFIN			RASI			USACR			LSACR			RSACR			LTHI1			LTHI2			LTHI3			LTHI4			LTIB1			LTIB2			LTIB3			LTIB4			LLMAL			LHEE			LMT1			LMT2			RTHI			RTHI2			RTHI3			RTHI4			RLFC			RTIB1			RTIB2			RTIB3			RTIB4			RLMAL			RHEE			RMT1			RMT2			RMT5		
		X1	Y1	Z1	X2	Y2	Z2	X3	Y3	Z3	X4	Y4	Z4	X5	Y5	Z5	X6	Y6	Z6	X7	Y7	Z7	X8	Y8	Z8	X9	Y9	Z9	X10	Y10	Z10	X11	Y11	Z11	X12	Y12	Z12	X13	Y13	Z13	X14	Y14	Z14	X15	Y15	Z15	X16	Y16	Z16	X17	Y17	Z17	X18	Y18	Z18	X19	Y19	Z19	X20	Y20	Z20	X21	Y21	Z21	X22	Y22	Z22	X23	Y23	Z23	X24	Y24	Z24	X25	Y25	Z25	X26	Y26	Z26	X27	Y27	Z27	X28	Y28	Z28	X29	Y29	Z29	X30	Y30	Z30	X31	Y31	Z31	X32	Y32	Z32	X33	Y33	Z33	X34	Y34	Z34	X35	Y35	Z35	X36	Y36	Z36	X37	Y37	Z37	X38	Y38	Z38	X39	Y39	Z39	X40	Y40	Z40	X41	Y41	Z41	X42	Y42	Z42	X43	Y43	Z43	X44	Y44	Z44	X45	Y45	Z45	X46	Y46	Z46	X47	Y47	Z47	X48	Y48	Z48	X49	Y49	Z49	X50	Y50	Z50	X51	Y51	Z51	X52	Y52	Z52	X53	Y53	Z53	X54	Y54	Z54	

496	2.475000	-1209.731935	1559.098932	422.155330	-1373.265495	1617.854812	323.351269	-1346.569970	1596.958033	444.586622	-1478.311041	1480.424589	353.048765	-1636.683075	1168.198211	345.675919	-1368.013101	1357.196672	372.943784	-1380.632664	1445.216265	237.205099	-1365.272567	1295.546372	115.543789	-1323.385081	1278.890716	127.479408	-1342.532113	1233.045210	95.651577	-1312.883856	1120.060596	64.139918	-1330.617857	1079.041136	126.948728	-1181.039483	1270.221081	222.429948	-1120.393812	1231.987220	206.830409	-1148.511386	1330.411861	199.970691	-1433.790518	1444.449044	521.938646	-1591.698076	1414.005357	599.759470	-1603.361766	1368.208885	603.230373	-1655.749643	1396.851207	609.845201	-1785.662135	1352.491224	630.597390	-1798.391269	1344.487565	559.818168	-1805.964781	1089.072254	650.137513	-1867.309154	1113.827810	682.609049	-1793.937511	1048.348497	720.018832	-1512.338350	963.681056	439.307059	-1670.782988	1092.569394	358.799597	-1687.880578	1063.182324	332.694270	-1682.590082	1063.118816	390.811903	-1745.889099	770.367202	169.838218	-1767.963654	688.446665	178.397688	-1729.921051	664.013885	192.463048	-1824.033146	665.241502	189.118540	-1982.462440	422.799414	242.999251	-2061.165876	439.042065	207.045768	-2034.303755	407.635496	221.068815	-2084.944297	344.423151	251.097007	-2233.443477	276.980748	247.376470	-2287.881089	332.482852	298.148776	-2239.141719	117.758008	328.845160	-2244.201098	113.429462	282.519788	-1449.457168	812.413744	514.953794	-1385.873736	801.790418	507.466658	-1364.594026	825.166483	492.363060	-1351.437913	723.977374	490.167349	-1279.219888	656.768523	469.677829	-1286.025721	443.064626	426.328051	-1369.386521	385.764534	468.635147	-1329.470820	372.644940	446.933703	-1338.246158	327.282881	414.468312	-1414.791980	248.281955	447.788275	-1498.972719	225.413113	408.101249	-1285.510130	163.881456	362.768839	-1279.980962	161.351711	402.829354	-1321.089278	141.695662	456.638743	
497	2.480000	-1180.347983	1560.430956	424.265567	-1343.885849	1618.821201	325.321879	-1317.279009	1598.094929	446.556069	-1449.242679	1481.549724	354.449907	-1606.393215	1169.414219	344.955221	-1338.780276	1358.686887	374.717281	-1350.756823	1447.269716	239.047127	-1334.662259	1299.049969	115.557881	-1292.996735	1281.974608	127.428997	-1312.146233	1236.785160	94.719345	-1283.138432	1124.492797	61.585980	-1301.220903	1082.543447	124.306559	-1156.399893	1274.575949	223.873373	-1094.747232	1237.623241	208.713106	-1125.018752	1335.530775	202.343563	-1405.000976	1445.552543	523.177623	-1563.690308	1416.783696	598.943119	-1575.673263	1371.135437	602.682569	-1628.051669	1400.208537	607.803912	-1758.588601	1356.876093	627.905061	-1770.022906	1347.251852	556.770799	-1778.308843	1093.377752	651.434174	-1840.068760	1118.466432	682.800955	-1767.100149	1053.785117	722.180918	-1482.022207	964.754313	437.568053	-1640.237800	1094.042175	357.884964	-1657.134694	1064.636546	331.652856	-1652.046277	1064.450169	389.792686	-1715.319841	772.574551	169.056131	-1738.080497	690.968722	178.910900	-1700.479527	666.309795	193.581520	-1794.456220	668.408114	189.529615	-1958.201277	429.085072	245.103284	-2035.695160	446.873315	207.466088	-2010.036298	415.015906	222.342364	-2063.055609	353.899481	252.409445	-2213.481788	291.289943	246.824072	-2266.482305	349.466990	296.346002	-2226.434647	132.226422	328.966541	-2230.646860	127.254582	282.414596	-1419.967106	812.971120	513.612354	-1356.454099	802.000942	506.472506	-1334.949120	825.117571	491.376558	-1322.332526	723.752318	490.203875	-1249.683255	655.250662	470.608743	-1244.123414	440.310902	427.127549	-1323.147281	377.115291	469.347324	-1282.527931	366.905301	447.491176	-1288.410409	321.458000	414.854054	-1359.086873	236.944841	447.760013	-1441.647876	208.879203	408.081622	-1224.850162	162.488527	362.418130	-1218.922957	159.854422	402.178970	-1258.489559	136.984888	455.762524	
498	2.485000	-1150.855308	1561.653779	426.360342	-1314.356821	1619.703273	327.236102	-1287.875518	1599.131079	448.478881	-1420.081078	1482.593686	355.907527	-1576.180313	1170.565113	344.456435	-1309.493611	1360.020217	376.377953	-1320.805892	1449.147535	240.747940	-1304.599933	1302.252221	115.431641	-1263.133197	1284.632045	127.140525	-1282.527428	1240.202533	93.533474	-1254.360360	1128.526475	58.960694	-1272.850332	1085.778395	121.618904	-1131.918079	1277.431752	225.392293	-1069.417824	1241.598323	210.441774	-1101.567833	1339.077260	204.918362	-1376.084367	1446.412505	524.427784	-1535.504529	1419.022597	598.147533	-1547.727174	1373.507636	602.216511	-1600.138362	1402.942027	605.904819	-1731.097419	1360.465353	625.296611	-1741.379104	1349.291690	554.002526	-1750.089305	1096.947901	652.822866	-1812.250785	1122.272337	683.142193	-1739.601093	1058.553470	724.407390	-1451.864666	965.593345	435.929020	-1609.855726	1095.426143	357.372539	-1626.532735	1066.032004	330.985126	-1621.613363	1065.666948	389.129817	-1684.224291	774.208631	168.331688	-1707.434743	692.861966	179.340230	-1670.212742	668.106219	194.603078	-1764.027508	670.731664	189.726677	-1933.365077	434.701145	247.022643	-2009.548625	454.377219	207.841390	-1985.241010	421.983088	223.552099	-2040.819710	363.362224	253.818855	-2193.289878	306.323498	246.715921	-2245.052701	366.821463	295.032280	-2212.505483	147.956500	329.400285	-2215.899600	142.461384	282.663842	-1390.841753	812.619159	512.545872	-1327.450908	801.144157	505.680042	-1305.714435	823.917875	490.479312	-1293.827283	722.370089	490.517919	-1221.007762	652.478655	471.651338	-1203.210974	437.292240	428.020435	-1277.523606	368.531285	470.112160	-1236.399055	361.279171	448.120700	-1239.418552	315.906120	415.337834	-1303.881975	226.242843	447.819182	-1384.509151	193.216160	408.180323	-1165.483742	162.047020	362.147488	-1159.081785	159.258290	401.618575	-1196.900382	133.222844	454.904908	
499	2.490000	-1121.248349	1562.772593	428.423500	-1284.687297	1620.530983	329.109521	-1258.342935	1600.075028	450.361547	-1390.788870	1483.581988	357.422705	-1546.052328	1171.642246	344.131383	-1280.146874	1361.217003	377.930357	-1290.773258	1450.861397	242.321897	-1275.135051	1305.176603	115.172825	-1233.852247	1286.914149	126.613021	-1253.712132	1243.324470	92.133647	-1226.590370	1132.149992	56.310584	-1245.600011	1088.746774	118.902994	-1107.515752	1278.784338	226.978626	-1044.347814	1243.869444	211.999170	-1078.024425	1341.039230	207.698438	-1347.042410	1447.042471	525.694668	-1507.146018	1420.721170	597.400310	-1519.523504	1375.322825	601.857960	-1572.024904	1405.047633	604.219251	-1703.203436	1363.220286	622.848803	-1712.464042	1350.592678	551.553530	-1721.308173	1099.737714	654.298795	-1783.866935	1125.199238	683.628268	-1711.451115	1062.591495	726.688063	-1421.858676	966.210879	434.467031	-1579.667070	1096.694628	357.193259	-1596.080842	1067.334639	330.631386	-1591.315972	1066.742210	388.768154	-1652.570489	775.201603	167.702703	-1676.000248	694.046380	179.708017	-1639.090826	669.333676	195.566894	-1732.727344	672.133551	189.674628	-1908.032784	439.735561	248.600540	-1982.835948	461.658674	208.135035	-1959.997151	428.646539	224.592724	-2018.211861	372.836772	255.170608	-2172.741084	322.008476	246.989631	-2223.296592	384.544486	294.259525	-2197.344611	164.737399	330.088133	-2200.043013	158.845501	283.208804	-1362.059240	811.340469	511.833486	-1298.844798	799.191414	505.153314	-1276.878920	821.534866	489.722714	-1265.934010	719.811598	491.074252	-1193.250181	648.486614	472.688534	-1163.380244	434.055079	428.955389	-1232.680780	360.115756	470.906451	-1191.249340	355.824916	448.795362	-1191.454624	310.664058	415.899767	-1249.451143	216.255968	447.982870	-1327.865031	178.520996	408.408552	-1107.641390	162.514049	361.969782	-1100.715873	159.513729	401.168931	-1136.601315	130.393232	454.104259	
